<svg width="600" height="600" viewBox="0 0 600 600" fill="none" xmlns="http://www.w3.org/2000/svg">
<path d="M304.698 188.492L343.251 210.147L359.297 194.526L413.036 188.492L444.589 223.614L449.866 274.249L413.036 306.785L343.251 335.442L257.852 301.183L236.206 257.335L252.252 206.269L304.698 188.492Z" fill="black"/>
<path fill-rule="evenodd" clip-rule="evenodd" d="M234.85 428.923C200.579 428.923 168.409 421.608 140.572 408.793L253.827 305.42C238.182 292.587 228.201 273.105 228.201 251.292C228.201 229.082 238.548 209.289 254.685 196.47V181.315H298.178C315.67 181.315 331.664 187.734 343.931 198.344C356.199 187.734 372.193 181.315 389.685 181.315H433.178V196.47C449.314 209.289 459.661 229.082 459.661 251.292C459.661 279.219 443.301 303.325 419.642 314.549C411.182 339.528 395.269 361.994 373.97 380.267V412.56H320.431C294.672 423.031 265.607 428.923 234.85 428.923ZM298.18 305.12C310.918 305.12 322.623 300.696 331.841 293.299L343.826 320.285L355.867 293.171C365.109 300.645 376.876 305.12 389.687 305.12C419.415 305.12 443.515 281.021 443.515 251.293C443.515 221.564 419.415 197.465 389.687 197.465C370.37 197.465 353.43 207.64 343.933 222.923C334.437 207.64 317.497 197.465 298.18 197.465C268.451 197.465 244.352 221.564 244.352 251.293C244.352 281.021 268.451 305.12 298.18 305.12ZM298.18 288.97C318.989 288.97 335.859 272.1 335.859 251.29C335.859 230.481 318.989 213.611 298.18 213.611C277.37 213.611 260.5 230.481 260.5 251.29C260.5 272.1 277.37 288.97 298.18 288.97ZM298.18 272.822C310.071 272.822 319.711 263.182 319.711 251.29C319.711 239.399 310.071 229.759 298.18 229.759C286.288 229.759 276.648 239.399 276.648 251.29C276.648 263.182 286.288 272.822 298.18 272.822ZM427.366 251.29C427.366 272.1 410.497 288.97 389.687 288.97C368.877 288.97 352.007 272.1 352.007 251.29C352.007 230.481 368.877 213.611 389.687 213.611C410.497 213.611 427.366 230.481 427.366 251.29ZM411.218 251.29C411.218 263.182 401.578 272.822 389.687 272.822C377.795 272.822 368.156 263.182 368.156 251.29C368.156 239.399 377.795 229.759 389.687 229.759C401.578 229.759 411.218 239.399 411.218 251.29Z" fill="white"/>
<path fill-rule="evenodd" clip-rule="evenodd" d="M121.125 411.816L237.924 305.207C225.123 290.909 217.323 272.008 217.323 251.292C217.323 227.567 227.552 206.225 243.807 191.448V170.437H298.178C315.152 170.437 330.921 175.678 343.932 184.62C356.942 175.678 372.711 170.437 389.685 170.437H444.056V191.448C460.311 206.225 470.539 227.567 470.539 251.292C470.539 281.921 453.508 308.553 428.439 322.268C419.541 346.074 404.419 367.439 384.848 385.177V423.438H322.531C295.956 433.943 266.204 439.801 234.85 439.801C199.039 439.801 165.314 432.158 136.024 418.675L121.125 411.816ZM320.431 412.56H373.97V380.267C395.269 361.994 411.182 339.528 419.642 314.549C443.301 303.325 459.661 279.219 459.661 251.292C459.661 229.082 449.314 209.289 433.178 196.47V181.315H389.685C372.193 181.315 356.199 187.734 343.931 198.344C331.664 187.734 315.67 181.315 298.178 181.315H254.685V196.47C238.548 209.289 228.201 229.082 228.201 251.292C228.201 269.181 234.914 285.502 245.959 297.874C248.381 300.588 251.012 303.112 253.827 305.42L140.572 408.793C144.169 410.449 147.837 412.013 151.573 413.481C176.756 423.376 205.007 428.923 234.85 428.923C265.607 428.923 294.672 423.031 320.431 412.56ZM336.885 213.885C327.098 203.76 313.374 197.465 298.18 197.465C268.451 197.465 244.352 221.564 244.352 251.293C244.352 281.021 268.451 305.12 298.18 305.12C306.969 305.12 315.266 303.014 322.594 299.278C325.886 297.6 328.983 295.592 331.841 293.299L343.826 320.285L355.867 293.171C358.718 295.477 361.81 297.497 365.098 299.188C372.468 302.98 380.828 305.12 389.687 305.12C419.415 305.12 443.515 281.021 443.515 251.293C443.515 221.564 419.415 197.465 389.687 197.465C374.493 197.465 360.769 203.76 350.982 213.885C348.326 216.632 345.96 219.661 343.933 222.923C341.906 219.661 339.541 216.632 336.885 213.885ZM343.826 293.484L350.083 279.394C347.524 275.793 345.443 271.828 343.933 267.592C342.398 271.901 340.271 275.929 337.651 279.579L343.826 293.484ZM298.18 261.943C304.063 261.943 308.833 257.174 308.833 251.29C308.833 245.407 304.063 240.637 298.18 240.637C292.296 240.637 287.527 245.407 287.527 251.29C287.527 257.174 292.296 261.943 298.18 261.943ZM389.687 261.943C395.57 261.943 400.34 257.174 400.34 251.29C400.34 245.407 395.57 240.637 389.687 240.637C383.803 240.637 379.034 245.407 379.034 251.29C379.034 257.174 383.803 261.943 389.687 261.943ZM335.859 251.29C335.859 272.1 318.989 288.97 298.18 288.97C277.37 288.97 260.5 272.1 260.5 251.29C260.5 230.481 277.37 213.611 298.18 213.611C318.989 213.611 335.859 230.481 335.859 251.29ZM319.711 251.29C319.711 263.182 310.071 272.822 298.18 272.822C286.288 272.822 276.648 263.182 276.648 251.29C276.648 239.399 286.288 229.759 298.18 229.759C310.071 229.759 319.711 239.399 319.711 251.29ZM389.687 288.97C410.497 288.97 427.366 272.1 427.366 251.29C427.366 230.481 410.497 213.611 389.687 213.611C368.877 213.611 352.007 230.481 352.007 251.29C352.007 272.1 368.877 288.97 389.687 288.97ZM389.687 272.822C401.578 272.822 411.218 263.182 411.218 251.29C411.218 239.399 401.578 229.759 389.687 229.759C377.795 229.759 368.156 239.399 368.156 251.29C368.156 263.182 377.795 272.822 389.687 272.822Z" fill="black"/>
<path fill-rule="evenodd" clip-rule="evenodd" d="M234.85 428.923C200.579 428.923 168.409 421.608 140.572 408.793L253.827 305.42C238.182 292.587 228.201 273.105 228.201 251.292C228.201 229.082 238.548 209.289 254.685 196.47V181.315H298.178C315.67 181.315 331.664 187.734 343.931 198.344C356.199 187.734 372.193 181.315 389.685 181.315H433.178V196.47C449.314 209.289 459.661 229.082 459.661 251.292C459.661 279.219 443.301 303.325 419.642 314.549C411.182 339.528 395.269 361.994 373.97 380.267V412.56H320.431C294.672 423.031 265.607 428.923 234.85 428.923ZM298.18 305.12C310.918 305.12 322.623 300.696 331.841 293.299L343.826 320.285L355.867 293.171C365.109 300.645 376.876 305.12 389.687 305.12C419.415 305.12 443.515 281.021 443.515 251.293C443.515 221.564 419.415 197.465 389.687 197.465C370.37 197.465 353.43 207.64 343.933 222.923C334.437 207.64 317.497 197.465 298.18 197.465C268.451 197.465 244.352 221.564 244.352 251.293C244.352 281.021 268.451 305.12 298.18 305.12ZM298.18 288.97C318.989 288.97 335.859 272.1 335.859 251.29C335.859 230.481 318.989 213.611 298.18 213.611C277.37 213.611 260.5 230.481 260.5 251.29C260.5 272.1 277.37 288.97 298.18 288.97ZM298.18 272.822C310.071 272.822 319.711 263.182 319.711 251.29C319.711 239.399 310.071 229.759 298.18 229.759C286.288 229.759 276.648 239.399 276.648 251.29C276.648 263.182 286.288 272.822 298.18 272.822ZM427.366 251.29C427.366 272.1 410.497 288.97 389.687 288.97C368.877 288.97 352.007 272.1 352.007 251.29C352.007 230.481 368.877 213.611 389.687 213.611C410.497 213.611 427.366 230.481 427.366 251.29ZM411.218 251.29C411.218 263.182 401.578 272.822 389.687 272.822C377.795 272.822 368.156 263.182 368.156 251.29C368.156 239.399 377.795 229.759 389.687 229.759C401.578 229.759 411.218 239.399 411.218 251.29Z" fill="white"/>
<path d="M351.701 250.845C351.701 280.614 327.569 304.746 297.801 304.746C268.032 304.746 243.9 280.614 243.9 250.845C243.9 221.077 268.032 196.945 297.801 196.945C327.569 196.945 351.701 221.077 351.701 250.845Z" fill="black"/>
<path d="M443.333 250.845C443.333 280.614 419.201 304.746 389.433 304.746C359.664 304.746 335.532 280.614 335.532 250.845C335.532 221.077 359.664 196.945 389.433 196.945C419.201 196.945 443.333 221.077 443.333 250.845Z" fill="black"/>
<path d="M335.53 250.845C335.53 271.683 318.637 288.576 297.799 288.576C276.961 288.576 260.069 271.683 260.069 250.845C260.069 230.007 276.961 213.115 297.799 213.115C318.637 213.115 335.53 230.007 335.53 250.845Z" fill="white"/>
<path d="M427.161 250.845C427.161 271.683 410.269 288.576 389.431 288.576C368.593 288.576 351.701 271.683 351.701 250.845C351.701 230.007 368.593 213.115 389.431 213.115C410.269 213.115 427.161 230.007 427.161 250.845Z" fill="white"/>
<path d="M319.361 250.845C319.361 262.752 309.708 272.405 297.801 272.405C285.894 272.405 276.241 262.752 276.241 250.845C276.241 238.938 285.894 229.285 297.801 229.285C309.708 229.285 319.361 238.938 319.361 250.845Z" fill="black"/>
<path d="M410.993 250.845C410.993 262.752 401.34 272.405 389.433 272.405C377.525 272.405 367.873 262.752 367.873 250.845C367.873 238.938 377.525 229.285 389.433 229.285C401.34 229.285 410.993 238.938 410.993 250.845Z" fill="black"/>
<path d="M343.51 319.93L324.839 277.888H362.182L343.51 319.93Z" fill="black"/>
</svg>
